<svg xmlns="http://www.w3.org/2000/svg" xmlns:xlink="http://www.w3.org/1999/xlink" width="512" zoomAndPan="magnify" viewBox="0 0 384 383.999986" height="512" preserveAspectRatio="xMidYMid meet" version="1.0"><defs><g/><clipPath id="3c4e878f4c"><path d="M 197.050781 233.367188 L 294.632812 233.367188 L 294.632812 330.949219 L 197.050781 330.949219 Z M 197.050781 233.367188 " clip-rule="nonzero"/></clipPath><clipPath id="c85be89d69"><path d="M 302.378906 221 L 318 221 L 318 235 L 302.378906 235 Z M 302.378906 221 " clip-rule="nonzero"/></clipPath><clipPath id="7acb70e800"><path d="M 327 219.644531 L 341 219.644531 L 341 235 L 327 235 Z M 327 219.644531 " clip-rule="nonzero"/></clipPath></defs><rect x="-38.4" width="460.8" fill="#ffffff" y="-38.399999" height="460.799983" fill-opacity="1"/><rect x="-38.4" width="460.8" fill="#000000" y="-38.399999" height="460.799983" fill-opacity="1"/><g fill="#ffffff" fill-opacity="1"><g transform="translate(38.400004, 320.363631)"><g><path d="M 8.46875 0 C 7.78125 0 7.4375 -0.304688 7.4375 -0.921875 L 7.4375 -60.640625 C 7.4375 -66.742188 9.132812 -71.664062 12.53125 -75.40625 C 15.925781 -79.144531 20.40625 -81.015625 25.96875 -81.015625 C 31.46875 -81.015625 35.910156 -79.144531 39.296875 -75.40625 C 42.691406 -71.664062 44.390625 -66.742188 44.390625 -60.640625 L 44.390625 -0.796875 C 44.390625 -0.265625 44.085938 0 43.484375 0 L 40.046875 0 C 39.429688 0 39.125 -0.304688 39.125 -0.921875 L 39.125 -29.984375 L 12.8125 -29.984375 L 12.8125 -0.921875 C 12.8125 -0.304688 12.507812 0 11.90625 0 Z M 39.125 -60.640625 C 39.125 -65.453125 37.960938 -69.226562 35.640625 -71.96875 C 33.316406 -74.71875 30.09375 -76.09375 25.96875 -76.09375 C 21.851562 -76.09375 18.628906 -74.71875 16.296875 -71.96875 C 13.972656 -69.226562 12.8125 -65.453125 12.8125 -60.640625 L 12.8125 -34.90625 L 39.125 -34.90625 Z M 39.125 -60.640625 "/></g></g></g><g fill="#ffffff" fill-opacity="1"><g transform="translate(90.368474, 320.363706)"><g><path d="M 8.46875 0 C 7.78125 0 7.4375 -0.304688 7.4375 -0.921875 L 7.4375 -60.640625 C 7.4375 -66.742188 9.132812 -71.664062 12.53125 -75.40625 C 15.925781 -79.144531 20.40625 -81.015625 25.96875 -81.015625 C 31.46875 -81.015625 35.910156 -79.144531 39.296875 -75.40625 C 42.691406 -71.664062 44.390625 -66.742188 44.390625 -60.640625 L 44.390625 -0.796875 C 44.390625 -0.265625 44.085938 0 43.484375 0 L 40.046875 0 C 39.429688 0 39.125 -0.304688 39.125 -0.921875 L 39.125 -29.984375 L 12.8125 -29.984375 L 12.8125 -0.921875 C 12.8125 -0.304688 12.507812 0 11.90625 0 Z M 39.125 -60.640625 C 39.125 -65.453125 37.960938 -69.226562 35.640625 -71.96875 C 33.316406 -74.71875 30.09375 -76.09375 25.96875 -76.09375 C 21.851562 -76.09375 18.628906 -74.71875 16.296875 -71.96875 C 13.972656 -69.226562 12.8125 -65.453125 12.8125 -60.640625 L 12.8125 -34.90625 L 39.125 -34.90625 Z M 39.125 -60.640625 "/></g></g></g><g fill="#ffffff" fill-opacity="1"><g transform="translate(142.336945, 322.401536)"><g><path d="M 11.09375 0.234375 C 10.332031 0.234375 9.703125 -0.015625 9.203125 -0.515625 C 8.710938 -1.015625 8.46875 -1.644531 8.46875 -2.40625 L 8.46875 -77.6875 C 8.46875 -78.53125 8.710938 -79.179688 9.203125 -79.640625 C 9.703125 -80.097656 10.332031 -80.328125 11.09375 -80.328125 L 26.4375 -80.328125 C 31.925781 -80.328125 36.367188 -78.515625 39.765625 -74.890625 C 43.160156 -71.265625 44.859375 -66.707031 44.859375 -61.21875 L 44.859375 -19.34375 C 44.859375 -15.675781 44.09375 -12.351562 42.5625 -9.375 C 41.039062 -6.40625 38.867188 -4.0625 36.046875 -2.34375 C 33.222656 -0.625 30.019531 0.234375 26.4375 0.234375 Z M 26.4375 -4.8125 C 30.320312 -4.8125 33.484375 -6.179688 35.921875 -8.921875 C 38.367188 -11.671875 39.59375 -15.144531 39.59375 -19.34375 L 39.59375 -61.21875 C 39.59375 -65.332031 38.390625 -68.707031 35.984375 -71.34375 C 33.578125 -73.976562 30.394531 -75.296875 26.4375 -75.296875 L 13.84375 -75.296875 L 13.84375 -4.8125 Z M 26.4375 -4.8125 "/></g></g></g><g fill="#ffffff" fill-opacity="1"><g transform="translate(298.224008, 322.401536)"><g><path d="M 21.96875 0 C 21.351562 0 21.046875 -0.304688 21.046875 -0.921875 L 21.046875 -26.203125 C 16.472656 -26.816406 12.738281 -28.894531 9.84375 -32.4375 C 6.945312 -35.988281 5.5 -40.316406 5.5 -45.421875 L 5.5 -79.1875 C 5.5 -79.789062 5.835938 -80.09375 6.515625 -80.09375 L 9.953125 -80.09375 C 10.566406 -80.09375 10.875 -79.789062 10.875 -79.1875 L 10.875 -45.421875 C 10.875 -41.222656 12.09375 -37.75 14.53125 -35 C 16.96875 -32.257812 20.019531 -30.890625 23.6875 -30.890625 C 27.425781 -30.890625 30.492188 -32.257812 32.890625 -35 C 35.296875 -37.75 36.5 -41.222656 36.5 -45.421875 L 36.5 -79.1875 C 36.5 -79.789062 36.804688 -80.09375 37.421875 -80.09375 L 40.84375 -80.09375 C 41.53125 -80.09375 41.875 -79.789062 41.875 -79.1875 L 41.875 -45.421875 C 41.875 -40.390625 40.425781 -36.082031 37.53125 -32.5 C 34.632812 -28.914062 30.894531 -26.816406 26.3125 -26.203125 L 26.3125 -0.921875 C 26.3125 -0.304688 26.007812 0 25.40625 0 Z M 21.96875 0 "/></g></g></g><g clip-path="url(#3c4e878f4c)"><path fill="#e60023" d="M 294.6875 282.1875 C 294.6875 283.785156 294.609375 285.382812 294.453125 286.972656 C 294.296875 288.5625 294.0625 290.144531 293.75 291.710938 C 293.4375 293.277344 293.050781 294.828125 292.585938 296.359375 C 292.121094 297.886719 291.585938 299.390625 290.972656 300.867188 C 290.359375 302.347656 289.679688 303.789062 288.925781 305.199219 C 288.171875 306.609375 287.347656 307.980469 286.460938 309.308594 C 285.574219 310.636719 284.621094 311.921875 283.605469 313.15625 C 282.59375 314.394531 281.519531 315.574219 280.390625 316.707031 C 279.257812 317.835938 278.078125 318.910156 276.839844 319.925781 C 275.605469 320.9375 274.320312 321.890625 272.992188 322.777344 C 271.664062 323.667969 270.292969 324.488281 268.882812 325.242188 C 267.472656 325.996094 266.03125 326.675781 264.550781 327.289062 C 263.074219 327.902344 261.570312 328.4375 260.042969 328.902344 C 258.511719 329.367188 256.960938 329.753906 255.394531 330.066406 C 253.828125 330.378906 252.246094 330.613281 250.65625 330.769531 C 249.0625 330.925781 247.46875 331.003906 245.871094 331.003906 C 244.273438 331.003906 242.675781 330.925781 241.085938 330.769531 C 239.496094 330.613281 237.914062 330.378906 236.347656 330.066406 C 234.777344 329.753906 233.230469 329.367188 231.699219 328.902344 C 230.167969 328.4375 228.664062 327.902344 227.1875 327.289062 C 225.710938 326.675781 224.269531 325.996094 222.859375 325.242188 C 221.449219 324.488281 220.078125 323.667969 218.75 322.777344 C 217.417969 321.890625 216.136719 320.9375 214.902344 319.925781 C 213.664062 318.910156 212.480469 317.835938 211.351562 316.707031 C 210.21875 315.574219 209.148438 314.394531 208.132812 313.15625 C 207.121094 311.921875 206.167969 310.636719 205.28125 309.308594 C 204.390625 307.980469 203.570312 306.609375 202.816406 305.199219 C 202.0625 303.789062 201.378906 302.347656 200.769531 300.867188 C 200.15625 299.390625 199.617188 297.886719 199.15625 296.359375 C 198.691406 294.828125 198.300781 293.277344 197.992188 291.710938 C 197.679688 290.144531 197.445312 288.5625 197.289062 286.972656 C 197.128906 285.382812 197.050781 283.785156 197.050781 282.1875 C 197.050781 280.589844 197.128906 278.992188 197.289062 277.402344 C 197.445312 275.8125 197.679688 274.230469 197.992188 272.664062 C 198.300781 271.09375 198.691406 269.546875 199.15625 268.015625 C 199.617188 266.484375 200.15625 264.980469 200.769531 263.503906 C 201.378906 262.027344 202.0625 260.585938 202.816406 259.175781 C 203.570312 257.765625 204.390625 256.394531 205.28125 255.066406 C 206.167969 253.734375 207.121094 252.453125 208.132812 251.21875 C 209.148438 249.980469 210.21875 248.796875 211.351562 247.667969 C 212.480469 246.535156 213.664062 245.464844 214.902344 244.449219 C 216.136719 243.4375 217.417969 242.484375 218.75 241.597656 C 220.078125 240.707031 221.449219 239.886719 222.859375 239.132812 C 224.269531 238.378906 225.710938 237.695312 227.1875 237.085938 C 228.664062 236.472656 230.167969 235.933594 231.699219 235.472656 C 233.230469 235.007812 234.777344 234.617188 236.347656 234.308594 C 237.914062 233.996094 239.496094 233.761719 241.085938 233.605469 C 242.675781 233.449219 244.273438 233.367188 245.871094 233.367188 C 247.46875 233.367188 249.0625 233.449219 250.65625 233.605469 C 252.246094 233.761719 253.828125 233.996094 255.394531 234.308594 C 256.960938 234.617188 258.511719 235.007812 260.042969 235.472656 C 261.570312 235.933594 263.074219 236.472656 264.550781 237.085938 C 266.03125 237.695312 267.472656 238.378906 268.882812 239.132812 C 270.292969 239.886719 271.664062 240.707031 272.992188 241.597656 C 274.320312 242.484375 275.605469 243.4375 276.839844 244.449219 C 278.078125 245.464844 279.257812 246.535156 280.390625 247.667969 C 281.519531 248.796875 282.59375 249.980469 283.605469 251.21875 C 284.621094 252.453125 285.574219 253.734375 286.460938 255.066406 C 287.347656 256.394531 288.171875 257.765625 288.925781 259.175781 C 289.679688 260.585938 290.359375 262.027344 290.972656 263.503906 C 291.585938 264.980469 292.121094 266.484375 292.585938 268.015625 C 293.050781 269.546875 293.4375 271.09375 293.75 272.664062 C 294.0625 274.230469 294.296875 275.8125 294.453125 277.402344 C 294.609375 278.992188 294.6875 280.589844 294.6875 282.1875 Z M 294.6875 282.1875 " fill-opacity="1" fill-rule="nonzero"/></g><g fill="#ffffff" fill-opacity="1"><g transform="translate(206.726343, 318.574595)"><g><path d="M 53.578125 -81.15625 C 58.910156 -81.15625 63.125 -79.320312 66.21875 -75.65625 C 69.3125 -72 70.859375 -67.117188 70.859375 -61.015625 L 70.859375 -0.921875 C 70.859375 -0.304688 70.515625 0 69.828125 0 L 66.390625 0 C 65.773438 0 65.46875 -0.304688 65.46875 -0.921875 L 65.46875 -61.015625 C 65.46875 -65.742188 64.4375 -69.441406 62.375 -72.109375 C 60.320312 -74.785156 57.390625 -76.125 53.578125 -76.125 C 50.066406 -76.125 47.222656 -74.75 45.046875 -72 C 42.867188 -69.25 41.78125 -65.585938 41.78125 -61.015625 L 41.78125 -0.921875 C 41.78125 -0.304688 41.472656 0 40.859375 0 L 37.4375 0 C 36.820312 0 36.515625 -0.304688 36.515625 -0.921875 L 36.515625 -61.015625 C 36.515625 -65.585938 35.425781 -69.25 33.25 -72 C 31.070312 -74.75 28.226562 -76.125 24.71875 -76.125 C 20.90625 -76.125 17.96875 -74.785156 15.90625 -72.109375 C 13.851562 -69.441406 12.828125 -65.742188 12.828125 -61.015625 L 12.828125 -0.921875 C 12.828125 -0.304688 12.519531 0 11.90625 0 L 8.46875 0 C 7.78125 0 7.4375 -0.304688 7.4375 -0.921875 L 7.4375 -61.015625 C 7.4375 -67.117188 8.984375 -72 12.078125 -75.65625 C 15.171875 -79.320312 19.382812 -81.15625 24.71875 -81.15625 C 31.132812 -81.15625 35.941406 -77.722656 39.140625 -70.859375 C 42.347656 -77.722656 47.160156 -81.15625 53.578125 -81.15625 Z M 53.578125 -81.15625 "/></g></g></g><g clip-path="url(#c85be89d69)"><path fill="#e60023" d="M 317.746094 234.90625 C 316.15625 234.585938 316.839844 235.101562 303.585938 223.363281 C 302.566406 222.460938 302.394531 222.125 302.664062 221.832031 C 303.476562 220.964844 315.707031 232.210938 316.378906 232.820312 C 316.851562 233.25 317.207031 233.8125 317.59375 234.332031 C 317.679688 234.445312 317.675781 234.625 317.746094 234.90625 Z M 317.746094 234.90625 " fill-opacity="1" fill-rule="nonzero"/></g><g clip-path="url(#7acb70e800)"><path fill="#e60023" d="M 329.316406 232.839844 C 328.339844 233.929688 327.957031 234.320312 327.609375 234.195312 C 326.082031 233.648438 335.714844 223.589844 337.3125 221.871094 C 337.96875 221.160156 338.761719 220.574219 339.511719 219.953125 C 339.691406 219.804688 339.941406 219.746094 340.160156 219.644531 C 340.941406 220.292969 337.085938 224.195312 329.316406 232.839844 Z M 329.316406 232.839844 " fill-opacity="1" fill-rule="nonzero"/></g><path fill="#e60023" d="M 316.265625 229.894531 C 316.003906 229.800781 315.71875 229.828125 315.207031 229.105469 C 311.480469 223.839844 311.855469 224.332031 311.535156 223.613281 C 311.324219 223.148438 311.863281 222.765625 312.230469 223.230469 C 312.972656 224.164062 315.445312 227.835938 315.921875 228.546875 C 316.171875 228.921875 316.398438 229.332031 316.265625 229.894531 Z M 316.265625 229.894531 " fill-opacity="1" fill-rule="nonzero"/><path fill="#e60023" d="M 308.78125 238.761719 C 304.960938 238.246094 304.351562 239.175781 304.167969 238.347656 C 304.027344 237.714844 304.765625 237.625 305.582031 237.496094 C 308.363281 237.066406 310.542969 238.320312 309.386719 238.660156 C 309.167969 238.722656 308.933594 238.738281 308.78125 238.761719 Z M 308.78125 238.761719 " fill-opacity="1" fill-rule="nonzero"/><path fill="#e60023" d="M 332.234375 234.207031 C 332.015625 234.308594 331.753906 234.3125 331.480469 234.367188 C 331.429688 233.917969 331.289062 234.109375 336.347656 230.625 C 338.976562 228.8125 337.714844 231.601562 332.234375 234.207031 Z M 332.234375 234.207031 " fill-opacity="1" fill-rule="nonzero"/><path fill="#e60023" d="M 337.539062 235.976562 C 336.546875 236.511719 337.609375 236.175781 332.851562 237.621094 C 332.097656 237.851562 331.492188 237.214844 332.480469 236.894531 C 335.542969 235.910156 337.292969 235.160156 337.539062 235.976562 Z M 337.539062 235.976562 " fill-opacity="1" fill-rule="nonzero"/><path fill="#e60023" d="M 312.292969 236.105469 C 311.59375 236.347656 311.585938 236.195312 308.160156 234.457031 C 307.140625 233.9375 307.550781 234.265625 307.144531 233.828125 C 307.265625 233.746094 307.382812 233.609375 307.511719 233.59375 C 307.714844 233.570312 307.949219 233.582031 308.125 233.667969 C 312.453125 235.828125 311.746094 235.503906 312.292969 236.105469 Z M 312.292969 236.105469 " fill-opacity="1" fill-rule="nonzero"/><path fill="#e60023" d="M 328.292969 226.972656 C 328.523438 226.578125 328.933594 226.566406 329.144531 226.710938 C 329.433594 226.90625 329.121094 227.363281 328.007812 229.328125 C 327.882812 229.546875 327.527344 229.644531 327.429688 229.59375 C 326.8125 229.269531 327.640625 228.105469 328.292969 226.972656 Z M 328.292969 226.972656 " fill-opacity="1" fill-rule="nonzero"/><path fill="#e60023" d="M 153.289062 56.660156 C 152.234375 57.28125 151.320312 58.121094 150.316406 58.824219 C 141.855469 64.769531 109.78125 86.242188 113.605469 134 C 119.035156 201.738281 146.9375 200.648438 188.605469 200.648438 C 230.269531 200.648438 261.269531 206.523438 269.953125 171.632812 C 278.78125 136.175781 262.804688 134.386719 260.027344 93.9375 C 257.25 53.488281 234.585938 38.429688 201.300781 42.316406 C 180.4375 44.753906 168.113281 47.914062 153.289062 56.660156 " fill-opacity="1" fill-rule="nonzero"/><path fill="#000000" d="M 203.273438 94.433594 C 203.199219 94.433594 203.125 94.40625 203.066406 94.347656 L 202.121094 93.398438 C 202.011719 93.285156 202.011719 93.101562 202.121094 92.988281 C 202.234375 92.875 202.417969 92.875 202.53125 92.988281 L 203.476562 93.941406 C 203.589844 94.054688 203.585938 94.238281 203.476562 94.347656 C 203.417969 94.40625 203.34375 94.433594 203.273438 94.433594 " fill-opacity="1" fill-rule="nonzero"/><path fill="#000000" d="M 206.578125 97.765625 C 206.503906 97.765625 206.429688 97.734375 206.375 97.679688 L 205.429688 96.726562 C 205.316406 96.613281 205.316406 96.429688 205.429688 96.320312 C 205.542969 96.207031 205.726562 96.207031 205.839844 96.320312 L 206.785156 97.273438 C 206.894531 97.386719 206.894531 97.566406 206.78125 97.679688 C 206.726562 97.734375 206.652344 97.765625 206.578125 97.765625 " fill-opacity="1" fill-rule="nonzero"/><path fill="#000000" d="M 202.328125 97.765625 C 202.253906 97.765625 202.179688 97.734375 202.121094 97.679688 C 202.011719 97.566406 202.011719 97.386719 202.121094 97.273438 L 203.066406 96.320312 C 203.179688 96.207031 203.363281 96.207031 203.476562 96.320312 C 203.585938 96.429688 203.589844 96.613281 203.476562 96.726562 L 202.53125 97.679688 C 202.476562 97.734375 202.402344 97.765625 202.328125 97.765625 " fill-opacity="1" fill-rule="nonzero"/><path fill="#000000" d="M 205.632812 94.433594 C 205.5625 94.433594 205.488281 94.40625 205.429688 94.347656 C 205.316406 94.238281 205.316406 94.054688 205.429688 93.941406 L 206.375 92.988281 C 206.484375 92.875 206.667969 92.875 206.78125 92.988281 C 206.894531 93.101562 206.894531 93.285156 206.785156 93.398438 L 205.839844 94.347656 C 205.78125 94.40625 205.707031 94.433594 205.632812 94.433594 " fill-opacity="1" fill-rule="nonzero"/><path fill="#000000" d="M 212.609375 106.378906 C 211.824219 106.378906 211.183594 107.023438 211.183594 107.820312 C 211.183594 108.613281 211.824219 109.257812 212.609375 109.257812 C 213.398438 109.257812 214.039062 108.613281 214.039062 107.820312 C 214.039062 107.023438 213.398438 106.378906 212.609375 106.378906 Z M 212.609375 109.835938 C 211.503906 109.835938 210.605469 108.933594 210.605469 107.820312 C 210.605469 106.707031 211.503906 105.800781 212.609375 105.800781 C 213.71875 105.800781 214.617188 106.707031 214.617188 107.820312 C 214.617188 108.933594 213.71875 109.835938 212.609375 109.835938 " fill-opacity="1" fill-rule="nonzero"/><path fill="#000000" d="M 262.050781 73.59375 C 261.984375 73.59375 261.921875 73.574219 261.867188 73.53125 C 261.746094 73.433594 261.722656 73.25 261.824219 73.125 C 264.765625 69.457031 266.601562 65.027344 267.140625 60.320312 C 267.160156 60.164062 267.304688 60.050781 267.460938 60.066406 C 267.621094 60.085938 267.734375 60.230469 267.714844 60.386719 C 267.164062 65.203125 265.28125 69.730469 262.273438 73.488281 C 262.214844 73.558594 262.132812 73.59375 262.050781 73.59375 " fill-opacity="1" fill-rule="nonzero"/><path fill="#000000" d="M 244.4375 195.515625 C 244.316406 195.515625 244.203125 195.441406 244.164062 195.316406 C 244.113281 195.167969 244.195312 195.003906 244.347656 194.953125 C 250.40625 192.953125 255.765625 189.261719 259.847656 184.28125 C 259.945312 184.15625 260.128906 184.140625 260.25 184.238281 C 260.375 184.339844 260.394531 184.523438 260.292969 184.644531 C 256.144531 189.710938 250.691406 193.464844 244.527344 195.5 C 244.5 195.511719 244.46875 195.515625 244.4375 195.515625 " fill-opacity="1" fill-rule="nonzero"/><path fill="#000000" d="M 254.269531 198.128906 C 254.160156 198.128906 254.054688 198.0625 254.007812 197.957031 C 253.941406 197.8125 254.003906 197.640625 254.152344 197.578125 C 258.417969 195.632812 262.039062 192.515625 264.625 188.558594 C 264.710938 188.425781 264.890625 188.386719 265.023438 188.476562 C 265.15625 188.5625 265.195312 188.742188 265.109375 188.875 C 262.460938 192.921875 258.753906 196.113281 254.386719 198.101562 C 254.351562 198.121094 254.308594 198.128906 254.269531 198.128906 " fill-opacity="1" fill-rule="nonzero"/><path fill="#000000" d="M 194.386719 55.289062 C 194.355469 55.289062 194.320312 55.28125 194.285156 55.269531 C 192.769531 54.691406 191.171875 54.210938 189.542969 53.839844 C 189.386719 53.804688 189.289062 53.652344 189.324219 53.496094 C 189.359375 53.339844 189.515625 53.242188 189.671875 53.277344 C 191.324219 53.652344 192.949219 54.140625 194.492188 54.730469 C 194.640625 54.785156 194.714844 54.953125 194.65625 55.101562 C 194.613281 55.21875 194.503906 55.289062 194.386719 55.289062 " fill-opacity="1" fill-rule="nonzero"/><path fill="#000000" d="M 170.054688 54.144531 C 169.921875 54.144531 169.804688 54.054688 169.773438 53.921875 C 169.734375 53.765625 169.832031 53.609375 169.988281 53.574219 C 175.777344 52.226562 181.429688 51.949219 186.796875 52.742188 C 186.953125 52.765625 187.066406 52.910156 187.042969 53.070312 C 187.019531 53.226562 186.871094 53.335938 186.714844 53.3125 C 181.417969 52.53125 175.835938 52.808594 170.117188 54.136719 C 170.097656 54.140625 170.074219 54.144531 170.054688 54.144531 " fill-opacity="1" fill-rule="nonzero"/><path fill="#000000" d="M 142.800781 70.476562 C 142.71875 70.476562 142.636719 70.441406 142.582031 70.375 C 142.476562 70.257812 142.488281 70.074219 142.609375 69.96875 C 144.171875 68.617188 145.808594 67.332031 147.476562 66.152344 C 147.605469 66.058594 147.785156 66.089844 147.878906 66.21875 C 147.96875 66.347656 147.9375 66.53125 147.808594 66.621094 C 146.15625 67.792969 144.535156 69.066406 142.988281 70.40625 C 142.933594 70.453125 142.867188 70.476562 142.800781 70.476562 " fill-opacity="1" fill-rule="nonzero"/><path fill="#000000" d="M 122.507812 114.582031 C 122.359375 114.582031 122.230469 114.46875 122.21875 114.316406 C 121.914062 110.351562 122.199219 106.222656 123.0625 102.046875 C 123.097656 101.890625 123.25 101.789062 123.40625 101.824219 C 123.5625 101.855469 123.660156 102.007812 123.628906 102.164062 C 122.773438 106.289062 122.492188 110.359375 122.796875 114.269531 C 122.808594 114.429688 122.6875 114.570312 122.53125 114.582031 C 122.523438 114.582031 122.515625 114.582031 122.507812 114.582031 " fill-opacity="1" fill-rule="nonzero"/><path fill="#000000" d="M 221.042969 67.628906 C 221.035156 67.628906 221.027344 67.628906 221.019531 67.628906 C 220.859375 67.617188 220.742188 67.480469 220.753906 67.320312 C 220.765625 67.167969 220.773438 67.019531 220.78125 66.871094 C 221.101562 59.75 216.222656 53.488281 209.179688 51.976562 L 204.273438 50.925781 C 204.117188 50.890625 204.019531 50.738281 204.050781 50.582031 C 204.085938 50.425781 204.238281 50.328125 204.394531 50.359375 L 209.300781 51.410156 C 212.800781 52.160156 215.945312 54.128906 218.15625 56.953125 C 220.382812 59.792969 221.519531 63.324219 221.355469 66.894531 C 221.351562 67.050781 221.339844 67.207031 221.328125 67.363281 C 221.316406 67.515625 221.191406 67.628906 221.042969 67.628906 " fill-opacity="1" fill-rule="nonzero"/><path fill="#000000" d="M 226.277344 65.117188 C 226.269531 65.117188 226.265625 65.117188 226.257812 65.117188 C 226.097656 65.105469 225.980469 64.96875 225.988281 64.808594 L 226.089844 63.378906 C 226.398438 59.070312 225.539062 54.753906 223.613281 50.894531 C 223.539062 50.75 223.597656 50.578125 223.742188 50.507812 C 223.882812 50.4375 224.058594 50.492188 224.128906 50.636719 C 226.101562 54.585938 226.980469 59.007812 226.667969 63.421875 L 226.566406 64.851562 C 226.554688 65.003906 226.429688 65.117188 226.277344 65.117188 " fill-opacity="1" fill-rule="nonzero"/><path fill="#000000" d="M 238.738281 188.117188 C 238.621094 188.117188 238.511719 188.046875 238.464844 187.933594 C 238.410156 187.785156 238.484375 187.617188 238.632812 187.5625 C 239.636719 187.179688 240.640625 186.777344 241.625 186.355469 C 241.773438 186.296875 241.941406 186.363281 242.003906 186.511719 C 242.066406 186.65625 242 186.828125 241.851562 186.890625 C 240.859375 187.308594 239.847656 187.71875 238.839844 188.101562 C 238.804688 188.113281 238.769531 188.117188 238.738281 188.117188 " fill-opacity="1" fill-rule="nonzero"/><path fill="#000000" d="M 221.789062 192.9375 C 221.65625 192.9375 221.539062 192.847656 221.507812 192.714844 C 221.472656 192.554688 221.570312 192.402344 221.726562 192.367188 C 225.183594 191.601562 229.28125 190.644531 233.460938 189.34375 C 233.613281 189.296875 233.773438 189.378906 233.820312 189.53125 C 233.871094 189.683594 233.785156 189.847656 233.632812 189.894531 C 229.433594 191.199219 225.320312 192.164062 221.851562 192.933594 C 221.832031 192.9375 221.808594 192.9375 221.789062 192.9375 " fill-opacity="1" fill-rule="nonzero"/><path fill="#ffffff" d="M 161.078125 63.941406 L 154.519531 63.140625 C 153.714844 63.042969 152.921875 63.425781 152.496094 64.125 L 150.328125 67.671875 L 148.667969 63.519531 C 148.386719 62.8125 147.742188 62.3125 146.988281 62.222656 L 140.957031 61.484375 C 139.816406 61.347656 139 60.300781 139.140625 59.148438 L 140.691406 46.261719 C 140.828125 45.109375 141.867188 44.289062 143.007812 44.429688 L 163.128906 46.886719 C 164.273438 47.023438 165.085938 48.070312 164.949219 49.21875 L 163.398438 62.109375 C 163.257812 63.261719 162.21875 64.078125 161.078125 63.941406 " fill-opacity="1" fill-rule="nonzero"/><path fill="#ffffff" d="M 154.828125 55.316406 C 154.203125 55.242188 153.613281 55.476562 153.199219 55.894531 L 149.609375 53.96875 C 149.617188 53.917969 149.636719 53.871094 149.640625 53.824219 C 149.652344 53.726562 149.648438 53.636719 149.648438 53.542969 L 153.730469 52.226562 C 154.039062 52.675781 154.523438 53.003906 155.105469 53.074219 C 156.179688 53.207031 157.160156 52.4375 157.292969 51.355469 C 157.425781 50.273438 156.65625 49.28125 155.582031 49.148438 C 154.507812 49.015625 153.527344 49.789062 153.394531 50.871094 C 153.382812 50.964844 153.386719 51.058594 153.386719 51.148438 L 149.304688 52.46875 C 148.996094 52.015625 148.511719 51.6875 147.933594 51.617188 C 146.859375 51.484375 145.875 52.257812 145.742188 53.339844 C 145.613281 54.421875 146.378906 55.410156 147.453125 55.542969 C 148.078125 55.621094 148.667969 55.386719 149.082031 54.964844 L 152.675781 56.894531 C 152.664062 56.941406 152.648438 56.988281 152.640625 57.039062 C 152.507812 58.121094 153.277344 59.109375 154.351562 59.246094 C 155.425781 59.375 156.40625 58.605469 156.539062 57.523438 C 156.671875 56.441406 155.902344 55.453125 154.828125 55.316406 " fill-opacity="1" fill-rule="nonzero"/><path fill="#ffffff" d="M 138.894531 76.320312 L 134.660156 78.285156 C 134.140625 78.527344 133.804688 79.054688 133.804688 79.632812 L 133.808594 82.570312 L 131.28125 80.695312 C 130.851562 80.375 130.28125 80.316406 129.792969 80.542969 L 125.898438 82.347656 C 125.160156 82.691406 124.289062 82.367188 123.949219 81.625 L 120.140625 73.296875 C 119.800781 72.554688 120.121094 71.675781 120.859375 71.332031 L 133.855469 65.304688 C 134.59375 64.960938 135.46875 65.285156 135.808594 66.027344 L 139.617188 74.355469 C 139.957031 75.097656 139.632812 75.976562 138.894531 76.320312 " fill-opacity="1" fill-rule="nonzero"/><path fill="#ffffff" d="M 131.238281 71.210938 C 130.804688 71.027344 130.328125 71.03125 129.894531 71.226562 C 129.570312 71.375 129.316406 71.613281 129.148438 71.933594 C 129.0625 72.097656 128.996094 72.277344 128.957031 72.472656 C 128.785156 72.375 128.609375 72.300781 128.433594 72.257812 C 128.078125 72.171875 127.734375 72.203125 127.410156 72.351562 C 126.976562 72.546875 126.65625 72.902344 126.503906 73.355469 C 126.359375 73.800781 126.390625 74.300781 126.597656 74.765625 C 126.8125 75.246094 127.183594 75.605469 127.773438 75.894531 C 128.296875 76.152344 128.976562 76.351562 129.757812 76.582031 C 130.027344 76.660156 130.332031 76.75 130.648438 76.847656 C 130.730469 76.875 130.820312 76.867188 130.902344 76.832031 C 130.980469 76.796875 131.046875 76.730469 131.082031 76.652344 C 131.222656 76.347656 131.355469 76.058594 131.476562 75.804688 C 131.824219 75.0625 132.128906 74.421875 132.285156 73.851562 C 132.457031 73.21875 132.441406 72.699219 132.226562 72.21875 C 132.019531 71.753906 131.667969 71.394531 131.238281 71.210938 " fill-opacity="1" fill-rule="nonzero"/><path fill="#ffffff" d="M 221.984375 72.835938 C 221.984375 72.835938 222.644531 73.128906 223.664062 73.019531 C 224.523438 72.929688 230.035156 71.265625 232.308594 63.953125 C 232.308594 63.953125 243.898438 65.898438 249.785156 65.4375 C 255.671875 64.972656 258.839844 64.5 258.839844 64.5 C 258.839844 64.5 255.304688 82.808594 242.332031 81.878906 C 242.332031 81.878906 238.550781 81.644531 238.53125 81.644531 C 237.996094 81.597656 231.105469 80.992188 228.628906 80.8125 C 226.054688 80.625 219.15625 81.648438 214.097656 79.980469 C 209.039062 78.3125 206.460938 75.808594 197.910156 71.828125 C 196.65625 71.246094 193.003906 70.164062 193.003906 70.164062 C 192.054688 71.984375 191.523438 74.308594 191.328125 77.46875 C 190.140625 96.71875 186.265625 101.273438 182.933594 101.019531 C 182.933594 101.019531 180.945312 100.785156 180.855469 100.773438 C 179.933594 100.671875 174.449219 100.097656 166.664062 99.804688 C 166.660156 99.804688 165.757812 99.789062 165.75 99.789062 L 165.757812 99.789062 C 166.152344 104.507812 167.769531 110.140625 171.472656 115.828125 C 179.824219 128.65625 181.335938 148.550781 175.683594 147.828125 C 175.683594 147.828125 168.984375 147.3125 161.90625 147.328125 C 161.878906 147.328125 119.597656 146.921875 119.597656 146.921875 C 119.597656 146.921875 105.207031 115.230469 131.730469 119.160156 C 132.046875 119.207031 132.425781 119.230469 132.742188 119.246094 C 132.742188 119.246094 129.554688 112.074219 127.855469 103.003906 C 126.777344 97.253906 128.679688 88.671875 137.816406 88.578125 C 143.367188 88.519531 155.902344 89.703125 155.902344 89.703125 C 155.902344 89.703125 156.683594 88.679688 156.703125 88.652344 C 157.160156 87.9375 161.855469 81.945312 165.710938 72.0625 C 169.691406 61.855469 187.269531 66.457031 196.65625 65.738281 C 196.738281 65.734375 200.292969 65.46875 200.292969 65.46875 C 206.25 65.066406 214.339844 68.847656 221.976562 72.828125 L 221.984375 72.835938 " fill-opacity="1" fill-rule="nonzero"/><path fill="#000000" d="M 162.234375 147.039062 C 169.125 147.039062 175.640625 147.535156 175.707031 147.539062 C 176.507812 147.640625 177.136719 147.300781 177.640625 146.496094 C 178.96875 144.375 179.128906 139.457031 178.054688 133.65625 C 176.871094 127.269531 174.386719 120.828125 171.230469 115.988281 C 167.066406 109.589844 165.800781 103.695312 165.472656 99.859375 C 165.46875 99.839844 165.464844 99.816406 165.464844 99.789062 C 165.460938 99.632812 165.585938 99.503906 165.738281 99.5 C 165.746094 99.5 165.753906 99.5 165.761719 99.5 L 166.21875 99.507812 C 166.445312 99.511719 166.671875 99.515625 166.675781 99.515625 C 174.425781 99.804688 179.875 100.375 180.886719 100.488281 C 180.976562 100.496094 182.96875 100.734375 182.96875 100.734375 C 183.828125 100.796875 184.660156 100.492188 185.425781 99.828125 C 187.464844 98.046875 190.097656 92.722656 191.039062 77.453125 C 191.238281 74.246094 191.78125 71.886719 192.75 70.03125 C 192.8125 69.90625 192.953125 69.847656 193.085938 69.886719 C 193.234375 69.929688 196.773438 70.980469 198.03125 71.566406 C 201.980469 73.40625 204.707031 74.957031 206.894531 76.203125 C 209.460938 77.660156 211.488281 78.8125 214.1875 79.703125 C 217.765625 80.882812 222.257812 80.699219 225.539062 80.566406 C 226.808594 80.515625 227.90625 80.472656 228.648438 80.523438 C 231.191406 80.707031 238.257812 81.328125 238.554688 81.355469 C 238.605469 81.359375 241.0625 81.511719 242.351562 81.59375 C 247.613281 81.96875 251.933594 79.210938 255.199219 73.398438 C 257.230469 69.777344 258.191406 66.046875 258.46875 64.84375 C 257.429688 64.984375 254.445312 65.359375 249.808594 65.722656 C 244.429688 66.148438 234.222656 64.554688 232.507812 64.277344 C 230.242188 71.230469 224.992188 73.167969 223.695312 73.308594 C 222.613281 73.421875 221.898438 73.113281 221.867188 73.097656 C 221.855469 73.09375 221.84375 73.085938 221.832031 73.082031 C 214.089844 69.042969 206.121094 65.359375 200.3125 65.753906 C 200.316406 65.753906 196.761719 66.019531 196.679688 66.027344 C 194.246094 66.214844 191.28125 66.046875 188.144531 65.867188 C 179.105469 65.359375 168.863281 64.78125 165.980469 72.167969 C 163.707031 77.996094 160.769531 83.445312 157.253906 88.363281 C 157.105469 88.578125 156.996094 88.730469 156.945312 88.804688 C 156.9375 88.820312 156.921875 88.84375 156.128906 89.878906 C 156.070312 89.957031 155.972656 90 155.875 89.988281 C 155.75 89.980469 143.289062 88.808594 137.816406 88.867188 C 134.613281 88.898438 132.109375 89.988281 130.371094 92.105469 C 127.808594 95.222656 127.539062 99.75 128.136719 102.953125 C 129.8125 111.882812 132.972656 119.058594 133.003906 119.132812 C 133.046875 119.222656 133.035156 119.328125 132.976562 119.410156 C 132.921875 119.496094 132.828125 119.546875 132.722656 119.535156 L 132.675781 119.53125 C 132.359375 119.515625 132 119.492188 131.6875 119.449219 C 125.140625 118.476562 120.582031 119.628906 118.136719 122.871094 C 112.804688 129.945312 119.027344 144.882812 119.785156 146.632812 C 122.84375 146.664062 161.789062 147.039062 161.90625 147.039062 C 162.015625 147.039062 162.125 147.039062 162.234375 147.039062 Z M 175.976562 148.136719 C 175.867188 148.136719 175.757812 148.128906 175.648438 148.113281 C 175.59375 148.109375 168.890625 147.605469 161.90625 147.617188 C 161.878906 147.617188 126.65625 147.277344 119.59375 147.210938 C 119.484375 147.207031 119.382812 147.140625 119.335938 147.039062 C 119.316406 147 117.433594 142.824219 116.292969 137.761719 C 114.75 130.917969 115.214844 125.789062 117.675781 122.523438 C 120.257812 119.101562 125 117.871094 131.773438 118.875 C 131.933594 118.898438 132.113281 118.917969 132.292969 118.929688 C 131.585938 117.238281 129.023438 110.796875 127.570312 103.058594 C 126.949219 99.730469 127.238281 95.007812 129.925781 91.738281 C 131.777344 89.484375 134.429688 88.324219 137.8125 88.289062 C 142.976562 88.238281 154.292969 89.265625 155.769531 89.398438 C 156.054688 89.027344 156.433594 88.53125 156.464844 88.484375 C 156.515625 88.40625 156.625 88.257812 156.785156 88.03125 C 160.273438 83.148438 163.1875 77.738281 165.441406 71.957031 C 168.476562 64.179688 178.941406 64.769531 188.179688 65.292969 C 191.296875 65.46875 194.242188 65.632812 196.632812 65.449219 C 196.714844 65.445312 200.273438 65.179688 200.273438 65.179688 C 206.226562 64.777344 214.289062 68.496094 222.109375 72.574219 C 222.113281 72.574219 222.113281 72.574219 222.113281 72.578125 C 222.210938 72.613281 222.792969 72.824219 223.632812 72.734375 C 223.691406 72.726562 229.621094 71.628906 232.03125 63.867188 C 232.074219 63.730469 232.214844 63.644531 232.355469 63.667969 C 232.472656 63.6875 243.980469 65.601562 249.761719 65.148438 C 255.570312 64.691406 258.765625 64.21875 258.796875 64.214844 C 258.890625 64.199219 258.980469 64.234375 259.046875 64.300781 C 259.113281 64.367188 259.140625 64.464844 259.121094 64.554688 C 259.113281 64.601562 258.203125 69.230469 255.703125 73.679688 C 252.5625 79.273438 248.273438 82.203125 243.257812 82.203125 C 242.945312 82.203125 242.628906 82.191406 242.3125 82.167969 C 240.589844 82.0625 238.527344 81.933594 238.503906 81.929688 C 238.433594 81.925781 231.144531 81.28125 228.609375 81.101562 C 227.898438 81.050781 226.816406 81.09375 225.5625 81.144531 C 222.238281 81.28125 217.683594 81.464844 214.007812 80.253906 C 211.25 79.34375 209.203125 78.179688 206.609375 76.703125 C 204.429688 75.460938 201.71875 73.917969 197.785156 72.089844 C 196.746094 71.605469 193.972656 70.753906 193.152344 70.511719 C 192.289062 72.257812 191.800781 74.484375 191.617188 77.488281 C 190.851562 89.90625 188.894531 97.570312 185.804688 100.261719 C 184.917969 101.035156 183.945312 101.386719 182.914062 101.308594 C 182.898438 101.308594 180.914062 101.070312 180.824219 101.058594 C 179.8125 100.949219 174.386719 100.382812 166.65625 100.09375 L 166.207031 100.085938 C 166.160156 100.085938 166.117188 100.082031 166.070312 100.082031 C 166.429688 103.855469 167.710938 109.523438 171.714844 115.671875 C 178.523438 126.125 181.097656 142.070312 178.128906 146.800781 C 177.578125 147.679688 176.839844 148.136719 175.976562 148.136719 " fill-opacity="1" fill-rule="nonzero"/><path fill="#000000" d="M 140.34375 120.136719 C 138.113281 120.136719 135.976562 120.023438 134.128906 119.734375 C 133.96875 119.710938 133.863281 119.5625 133.886719 119.402344 C 133.910156 119.246094 134.058594 119.140625 134.214844 119.164062 C 143.144531 120.558594 158.960938 117.84375 159.121094 117.816406 C 159.277344 117.789062 159.425781 117.894531 159.453125 118.050781 C 159.480469 118.210938 159.375 118.359375 159.21875 118.386719 C 159.09375 118.40625 149.007812 120.136719 140.34375 120.136719 " fill-opacity="1" fill-rule="nonzero"/><path fill="#000000" d="M 157.195312 90.03125 C 156.71875 90.03125 156.253906 90.011719 155.792969 89.980469 C 155.632812 89.96875 155.515625 89.832031 155.527344 89.671875 C 155.539062 89.511719 155.675781 89.390625 155.835938 89.40625 C 159.101562 89.636719 162.777344 89.019531 167.078125 87.523438 C 167.226562 87.46875 167.390625 87.550781 167.445312 87.699219 C 167.496094 87.851562 167.417969 88.015625 167.265625 88.066406 C 163.492188 89.382812 160.179688 90.03125 157.195312 90.03125 " fill-opacity="1" fill-rule="nonzero"/><path fill="#000000" d="M 175.980469 148.136719 C 175.230469 148.136719 174.277344 147.792969 173.09375 146.800781 C 169.171875 143.519531 167.792969 136.671875 166.574219 130.632812 C 165.152344 123.578125 163.921875 117.488281 159.328125 118.359375 C 157.886719 118.632812 156.75 119.4375 155.953125 120.75 C 153.527344 124.730469 154.582031 132.585938 156.21875 138.101562 C 156.265625 138.253906 156.179688 138.414062 156.027344 138.457031 C 155.871094 138.503906 155.710938 138.417969 155.667969 138.265625 C 153.914062 132.363281 152.9375 124.589844 155.460938 120.449219 C 156.347656 118.992188 157.613281 118.097656 159.21875 117.792969 C 164.375 116.8125 165.71875 123.46875 167.140625 130.515625 C 168.339844 136.464844 169.699219 143.207031 173.460938 146.355469 C 175.003906 147.648438 176.238281 147.902344 177.132812 147.109375 C 178.789062 145.640625 179.222656 140.769531 178.234375 134.699219 C 177.140625 127.960938 174.585938 121.140625 171.230469 115.988281 C 164.015625 104.902344 164.496094 93.582031 167.140625 89.082031 C 167.839844 87.890625 168.679688 87.269531 169.5 87.324219 C 171.871094 87.488281 174.222656 90.957031 176.5 94.308594 C 177.632812 95.976562 178.699219 97.550781 179.648438 98.507812 C 180.226562 99.085938 182.277344 100.917969 184.472656 100.074219 C 187.027344 99.089844 190.238281 94.367188 191.039062 77.457031 C 191.046875 77.296875 191.183594 77.175781 191.339844 77.183594 C 191.5 77.191406 191.625 77.324219 191.613281 77.484375 C 190.960938 91.308594 188.628906 99.089844 184.679688 100.609375 C 182.160156 101.582031 179.878906 99.554688 179.242188 98.914062 C 178.253906 97.921875 177.167969 96.324219 176.023438 94.632812 C 173.925781 91.546875 171.550781 88.046875 169.460938 87.898438 C 168.867188 87.859375 168.21875 88.382812 167.636719 89.375 C 165.066406 93.746094 164.632812 104.792969 171.714844 115.671875 C 175.113281 120.890625 177.699219 127.789062 178.804688 134.605469 C 179.839844 140.960938 179.34375 145.917969 177.515625 147.539062 C 177.148438 147.867188 176.644531 148.136719 175.980469 148.136719 " fill-opacity="1" fill-rule="nonzero"/><path fill="#000000" d="M 193.078125 70.359375 C 193.019531 70.359375 192.964844 70.34375 192.914062 70.308594 C 192.78125 70.21875 192.75 70.039062 192.839844 69.90625 C 192.839844 69.90625 192.859375 69.871094 192.886719 69.820312 C 193.007812 69.597656 193.148438 69.347656 193.226562 69.234375 C 194.503906 67.351562 196.457031 65.394531 201.265625 65.152344 C 201.429688 65.148438 201.5625 65.265625 201.570312 65.425781 C 201.578125 65.585938 201.457031 65.722656 201.296875 65.730469 C 196.742188 65.960938 194.902344 67.792969 193.703125 69.558594 C 193.632812 69.65625 193.46875 69.957031 193.390625 70.101562 C 193.347656 70.175781 193.320312 70.226562 193.316406 70.230469 C 193.257812 70.316406 193.167969 70.359375 193.078125 70.359375 " fill-opacity="1" fill-rule="nonzero"/><path fill="#000000" d="M 244.347656 82.144531 C 243.445312 82.144531 240.550781 81.933594 237.824219 80.953125 C 234.988281 79.9375 231.035156 77.871094 226.851562 75.683594 C 225.152344 74.792969 223.390625 73.871094 221.730469 73.039062 C 221.589844 72.96875 221.53125 72.792969 221.601562 72.652344 C 221.675781 72.507812 221.847656 72.453125 221.988281 72.523438 C 223.652344 73.359375 225.414062 74.28125 227.117188 75.171875 C 231.285156 77.347656 235.222656 79.40625 238.015625 80.410156 C 240.738281 81.386719 243.617188 81.578125 244.40625 81.566406 C 244.410156 81.566406 244.410156 81.566406 244.410156 81.566406 C 244.570312 81.566406 244.699219 81.691406 244.699219 81.851562 C 244.703125 82.011719 244.574219 82.140625 244.414062 82.144531 C 244.394531 82.144531 244.371094 82.144531 244.347656 82.144531 " fill-opacity="1" fill-rule="nonzero"/><path fill="#000000" d="M 156.941406 88.804688 C 156.9375 88.8125 156.9375 88.816406 156.933594 88.820312 C 156.9375 88.816406 156.941406 88.808594 156.941406 88.804688 Z M 156.667969 89.003906 C 156.636719 89.003906 156.605469 88.996094 156.578125 88.988281 C 156.425781 88.9375 156.34375 88.773438 156.394531 88.621094 C 156.421875 88.542969 156.476562 88.460938 156.785156 88.03125 C 160.273438 83.148438 163.1875 77.742188 165.441406 71.960938 C 168.476562 64.179688 178.941406 64.773438 188.175781 65.292969 C 191.402344 65.476562 194.449219 65.648438 196.890625 65.429688 C 197.046875 65.417969 197.1875 65.535156 197.203125 65.691406 C 197.214844 65.851562 197.097656 65.992188 196.941406 66.007812 C 194.460938 66.226562 191.394531 66.054688 188.144531 65.871094 C 179.105469 65.359375 168.859375 64.78125 165.980469 72.167969 C 163.707031 77.996094 160.769531 83.445312 157.253906 88.367188 C 157.105469 88.574219 156.964844 88.773438 156.933594 88.828125 C 156.886719 88.9375 156.78125 89.003906 156.667969 89.003906 " fill-opacity="1" fill-rule="nonzero"/><path fill="#000000" d="M 180.992188 101.078125 C 180.980469 101.078125 180.96875 101.078125 180.957031 101.078125 C 180.902344 101.070312 175.085938 100.40625 166.636719 100.09375 C 166.476562 100.085938 166.351562 99.953125 166.359375 99.792969 C 166.363281 99.636719 166.496094 99.511719 166.65625 99.515625 C 175.132812 99.832031 180.964844 100.496094 181.023438 100.503906 C 181.183594 100.523438 181.296875 100.664062 181.277344 100.824219 C 181.261719 100.96875 181.136719 101.078125 180.992188 101.078125 " fill-opacity="1" fill-rule="nonzero"/><path fill="#000000" d="M 138.945312 125.710938 C 131.34375 125.710938 122.703125 125.289062 122.15625 125.261719 C 122 125.253906 121.875 125.117188 121.882812 124.957031 C 121.890625 124.800781 122.027344 124.675781 122.1875 124.683594 C 122.386719 124.695312 142.425781 125.675781 148.558594 124.6875 C 148.714844 124.660156 148.863281 124.769531 148.886719 124.925781 C 148.914062 125.085938 148.808594 125.234375 148.648438 125.257812 C 146.539062 125.597656 142.882812 125.710938 138.945312 125.710938 " fill-opacity="1" fill-rule="nonzero"/><path fill="#000000" d="M 143.710938 130.640625 C 143.550781 130.640625 143.425781 130.515625 143.421875 130.359375 C 143.417969 130.199219 143.546875 130.066406 143.707031 130.066406 C 145.1875 130.046875 146.410156 130.007812 147.339844 129.957031 C 147.5 129.953125 147.636719 130.070312 147.644531 130.230469 C 147.652344 130.390625 147.53125 130.527344 147.371094 130.535156 C 146.433594 130.585938 145.203125 130.621094 143.714844 130.640625 C 143.714844 130.640625 143.710938 130.640625 143.710938 130.640625 " fill-opacity="1" fill-rule="nonzero"/><path fill="#000000" d="M 139.628906 130.664062 C 139.628906 130.664062 139.625 130.664062 139.625 130.664062 C 131.207031 130.652344 120.402344 130.351562 120.292969 130.347656 C 120.132812 130.34375 120.007812 130.210938 120.011719 130.050781 C 120.019531 129.890625 120.160156 129.761719 120.308594 129.769531 C 120.417969 129.773438 131.214844 130.074219 139.628906 130.085938 C 139.785156 130.085938 139.914062 130.214844 139.914062 130.375 C 139.914062 130.535156 139.785156 130.664062 139.628906 130.664062 " fill-opacity="1" fill-rule="nonzero"/><path fill="#000000" d="M 147.980469 135.683594 L 120.925781 135.683594 C 120.765625 135.683594 120.636719 135.554688 120.636719 135.394531 C 120.636719 135.234375 120.765625 135.105469 120.925781 135.105469 L 147.980469 135.105469 C 148.140625 135.105469 148.269531 135.234375 148.269531 135.394531 C 148.269531 135.554688 148.140625 135.683594 147.980469 135.683594 " fill-opacity="1" fill-rule="nonzero"/><path fill="#99b9ff" d="M 140.101562 90.757812 L 151.40625 91.628906 C 153.289062 91.773438 155.179688 91.796875 157.066406 91.699219 L 160.710938 91.511719 C 161.53125 91.46875 162.171875 92.214844 162.011719 93.027344 C 161.609375 95.0625 161.09375 98.734375 161.703125 102.207031 C 161.839844 102.996094 161.234375 103.71875 160.4375 103.703125 L 132.648438 103.167969 C 132.035156 103.152344 131.515625 102.699219 131.425781 102.082031 C 131.261719 100.949219 131.121094 99.039062 131.558594 97.039062 C 132.421875 93.097656 136.105469 90.449219 140.101562 90.757812 " fill-opacity="1" fill-rule="nonzero"/><path fill="#000000" d="M 141.808594 107.261719 C 141.253906 107.261719 140.695312 107.242188 140.144531 107.210938 L 132.253906 106.71875 C 132.09375 106.710938 131.972656 106.574219 131.984375 106.414062 C 131.992188 106.253906 132.128906 106.136719 132.289062 106.144531 L 140.179688 106.632812 C 140.777344 106.671875 141.378906 106.6875 141.976562 106.683594 L 147.929688 106.644531 C 148.089844 106.644531 148.21875 106.769531 148.21875 106.929688 C 148.21875 107.089844 148.089844 107.21875 147.933594 107.222656 L 141.980469 107.261719 C 141.921875 107.261719 141.867188 107.261719 141.808594 107.261719 " fill-opacity="1" fill-rule="nonzero"/><path fill="#000000" d="M 139.605469 116.105469 C 138.796875 116.105469 137.980469 116.0625 137.179688 115.976562 L 135.148438 115.757812 C 134.992188 115.742188 134.875 115.597656 134.894531 115.441406 C 134.910156 115.28125 135.054688 115.167969 135.210938 115.1875 L 137.242188 115.402344 C 138.152344 115.5 139.078125 115.542969 139.996094 115.527344 L 141.167969 115.503906 C 141.328125 115.511719 141.457031 115.628906 141.460938 115.789062 C 141.464844 115.949219 141.335938 116.078125 141.175781 116.082031 L 140.003906 116.101562 C 139.871094 116.105469 139.738281 116.105469 139.605469 116.105469 " fill-opacity="1" fill-rule="nonzero"/><path fill="#000000" d="M 147.082031 112.035156 C 143.523438 112.035156 139.953125 111.859375 136.425781 111.511719 L 133.65625 111.238281 C 133.496094 111.222656 133.382812 111.082031 133.398438 110.925781 C 133.414062 110.765625 133.554688 110.648438 133.710938 110.664062 L 136.480469 110.9375 C 141.792969 111.460938 147.1875 111.589844 152.519531 111.320312 L 163.839844 110.746094 C 164 110.742188 164.136719 110.863281 164.144531 111.019531 C 164.152344 111.179688 164.03125 111.316406 163.871094 111.324219 L 152.546875 111.898438 C 150.730469 111.988281 148.90625 112.035156 147.082031 112.035156 " fill-opacity="1" fill-rule="nonzero"/><path fill="#000000" d="M 185.011719 94.1875 C 185.003906 94.1875 185 94.1875 184.992188 94.183594 L 177.261719 93.746094 C 177.105469 93.738281 176.980469 93.601562 176.992188 93.441406 C 177 93.28125 177.136719 93.164062 177.296875 93.167969 L 185.027344 93.609375 C 185.183594 93.617188 185.308594 93.753906 185.296875 93.914062 C 185.289062 94.066406 185.160156 94.1875 185.011719 94.1875 " fill-opacity="1" fill-rule="nonzero"/><path fill="#000000" d="M 185.882812 89.476562 C 185.878906 89.476562 185.875 89.476562 185.871094 89.476562 L 174.398438 88.972656 C 174.242188 88.96875 174.117188 88.832031 174.125 88.671875 C 174.128906 88.515625 174.269531 88.390625 174.425781 88.398438 L 185.894531 88.898438 C 186.054688 88.90625 186.179688 89.042969 186.171875 89.199219 C 186.164062 89.355469 186.035156 89.476562 185.882812 89.476562 " fill-opacity="1" fill-rule="nonzero"/><path fill="#000000" d="M 186.546875 84.285156 C 186.542969 84.285156 186.542969 84.285156 186.539062 84.285156 L 163.347656 83.535156 C 163.1875 83.527344 163.0625 83.394531 163.070312 83.234375 C 163.074219 83.074219 163.210938 82.953125 163.367188 82.957031 L 186.558594 83.710938 C 186.714844 83.714844 186.839844 83.847656 186.835938 84.007812 C 186.832031 84.164062 186.703125 84.285156 186.546875 84.285156 " fill-opacity="1" fill-rule="nonzero"/><path fill="#000000" d="M 187.378906 79.265625 C 187.371094 79.265625 187.363281 79.265625 187.355469 79.265625 C 182.191406 78.851562 166.429688 79.011719 166.269531 79.011719 C 166.269531 79.011719 166.269531 79.011719 166.265625 79.011719 C 166.109375 79.011719 165.980469 78.886719 165.976562 78.726562 C 165.976562 78.566406 166.105469 78.4375 166.261719 78.4375 C 166.421875 78.433594 182.210938 78.273438 187.402344 78.6875 C 187.5625 78.703125 187.679688 78.839844 187.667969 79 C 187.652344 79.152344 187.527344 79.265625 187.378906 79.265625 " fill-opacity="1" fill-rule="nonzero"/><path fill="#99b9ff" d="M 169.164062 74.371094 L 187.777344 74.371094 C 188.027344 74.371094 188.242188 74.203125 188.300781 73.957031 C 188.53125 73.003906 189.207031 70.605469 190.566406 69.011719 C 190.859375 68.664062 190.640625 68.132812 190.191406 68.109375 C 186.828125 67.945312 177.640625 67.585938 173.558594 68.40625 C 173.234375 68.46875 172.925781 68.589844 172.640625 68.757812 C 171.65625 69.355469 169.304688 71.023438 168.640625 73.695312 C 168.554688 74.039062 168.8125 74.371094 169.164062 74.371094 " fill-opacity="1" fill-rule="nonzero"/><path fill="#000000" d="M 247.761719 69.472656 C 241.316406 69.472656 234.550781 68.394531 234.460938 68.378906 C 234.304688 68.355469 234.199219 68.203125 234.222656 68.046875 C 234.25 67.890625 234.394531 67.78125 234.554688 67.808594 C 234.671875 67.828125 246.476562 69.710938 253.660156 68.480469 C 253.816406 68.453125 253.964844 68.558594 253.992188 68.714844 C 254.019531 68.871094 253.914062 69.023438 253.757812 69.046875 C 251.957031 69.355469 249.875 69.472656 247.761719 69.472656 " fill-opacity="1" fill-rule="nonzero"/><path fill="#000000" d="M 249.023438 73.777344 C 240.792969 73.777344 231.480469 72.164062 231.382812 72.144531 C 231.222656 72.117188 231.121094 71.96875 231.148438 71.8125 C 231.175781 71.65625 231.324219 71.550781 231.480469 71.578125 C 231.589844 71.597656 242.523438 73.492188 251.117188 73.164062 C 251.28125 73.160156 251.414062 73.28125 251.417969 73.441406 C 251.425781 73.601562 251.300781 73.734375 251.140625 73.738281 C 250.449219 73.765625 249.738281 73.777344 249.023438 73.777344 " fill-opacity="1" fill-rule="nonzero"/><path fill="#000000" d="M 245.960938 78.148438 C 242.179688 78.148438 237.613281 77.335938 237.386719 77.292969 C 237.230469 77.265625 237.125 77.113281 237.152344 76.957031 C 237.179688 76.800781 237.332031 76.699219 237.488281 76.726562 C 237.554688 76.738281 244.101562 77.90625 247.941406 77.476562 C 248.097656 77.457031 248.242188 77.574219 248.257812 77.730469 C 248.277344 77.886719 248.164062 78.03125 248.003906 78.050781 C 247.375 78.121094 246.683594 78.148438 245.960938 78.148438 " fill-opacity="1" fill-rule="nonzero"/><path fill="#000000" d="M 130.609375 186.554688 L 203.859375 186.554688 C 204.503906 186.554688 205.03125 186.027344 205.03125 185.382812 L 205.03125 182.789062 L 129.4375 182.789062 L 129.4375 185.382812 C 129.4375 186.027344 129.960938 186.554688 130.609375 186.554688 " fill-opacity="1" fill-rule="nonzero"/><path fill="#000000" d="M 129.4375 182.863281 L 173.503906 182.863281 L 159.503906 141.390625 C 158.664062 140.09375 157.207031 139.304688 155.636719 139.304688 L 118.382812 139.304688 C 116.695312 139.304688 115.605469 140.957031 116.15625 142.414062 C 116.375 142.992188 116.613281 143.566406 116.804688 144.152344 L 129.4375 182.863281 " fill-opacity="1" fill-rule="nonzero"/><path fill="#e60023" d="M 145.902344 160.492188 C 146.449219 162.316406 145.613281 164.183594 144.039062 164.664062 C 142.460938 165.144531 140.738281 164.050781 140.191406 162.226562 C 139.644531 160.398438 140.480469 158.53125 142.058594 158.050781 C 143.636719 157.570312 145.355469 158.664062 145.902344 160.492188 " fill-opacity="1" fill-rule="nonzero"/><path fill="#e60023" d="M 166.808594 182.785156 L 135.980469 182.785156 C 135.820312 182.785156 135.691406 182.65625 135.691406 182.496094 C 135.691406 182.335938 135.820312 182.207031 135.980469 182.207031 L 166.808594 182.207031 C 166.964844 182.207031 167.09375 182.335938 167.09375 182.496094 C 167.09375 182.65625 166.964844 182.785156 166.808594 182.785156 " fill-opacity="1" fill-rule="nonzero"/><path fill="#e60023" d="M 132.613281 182.785156 L 129.027344 182.785156 C 128.871094 182.785156 128.742188 182.65625 128.742188 182.496094 C 128.742188 182.335938 128.871094 182.207031 129.027344 182.207031 L 132.613281 182.207031 C 132.773438 182.207031 132.902344 182.335938 132.902344 182.496094 C 132.902344 182.65625 132.773438 182.785156 132.613281 182.785156 " fill-opacity="1" fill-rule="nonzero"/><path fill="#000000" d="M 158.257812 199.253906 C 151 199.253906 144.972656 198.867188 140.226562 198.09375 C 133.003906 196.917969 128.722656 194.84375 127.503906 191.929688 C 125.890625 188.082031 130.152344 184.304688 130.335938 184.144531 C 130.457031 184.039062 130.636719 184.054688 130.742188 184.171875 C 130.847656 184.292969 130.835938 184.476562 130.714844 184.582031 C 130.675781 184.617188 126.582031 188.246094 128.035156 191.707031 C 129.476562 195.140625 136.269531 198.683594 158.167969 198.683594 C 164.714844 198.683594 172.609375 198.367188 182.121094 197.636719 C 188.804688 197.121094 201.023438 195.929688 207.300781 194.757812 C 207.457031 194.726562 207.609375 194.832031 207.636719 194.988281 C 207.667969 195.144531 207.5625 195.296875 207.40625 195.324219 C 201.105469 196.503906 188.859375 197.695312 182.164062 198.210938 C 173.121094 198.90625 165.136719 199.253906 158.257812 199.253906 " fill-opacity="1" fill-rule="nonzero"/><path fill="#ffffff" d="M 255.8125 122.113281 C 255.8125 122.113281 266.226562 122.761719 270.441406 128.433594 C 273.238281 132.195312 272.976562 139.910156 271.496094 151.164062 C 270.515625 158.589844 268.71875 162.285156 266.980469 166.847656 C 262.613281 178.332031 255.914062 181.472656 248.902344 182.113281 C 240.152344 182.917969 209.246094 182.476562 201.933594 182.359375 C 201.09375 182.34375 200.332031 181.863281 199.949219 181.109375 L 199.480469 180.175781 C 198.980469 179.191406 198.84375 176.136719 199.0625 174.507812 C 199.195312 173.484375 199.78125 172.5625 200.683594 172.078125 C 200.890625 171.964844 201.09375 171.886719 201.285156 171.875 L 215.921875 170.199219 C 215.921875 170.199219 230.101562 152.007812 223.660156 143.242188 C 221.34375 140.085938 210.628906 146.808594 201.273438 145.464844 C 193.351562 144.324219 184.789062 130.476562 182.351562 126.257812 C 181.863281 125.410156 181.691406 124.410156 181.886719 123.445312 C 182.183594 121.953125 182.890625 119.828125 184.542969 118.921875 C 185.925781 118.160156 188.503906 116.871094 190.9375 119.421875 C 190.9375 119.421875 197.042969 128.636719 204.394531 128.863281 C 211.746094 129.085938 219.835938 119.097656 243.582031 120.8125 L 255.8125 122.113281 " fill-opacity="1" fill-rule="nonzero"/><path fill="#e60023" d="M 215.722656 170.207031 C 215.574219 170.207031 215.449219 170.09375 215.433594 169.945312 C 215.421875 169.785156 215.539062 169.644531 215.695312 169.632812 C 229.964844 168.386719 254.230469 162.992188 256.402344 140.851562 C 256.417969 140.695312 256.558594 140.578125 256.71875 140.59375 C 256.878906 140.609375 256.992188 140.75 256.976562 140.910156 C 255.933594 151.535156 249.769531 159.515625 238.652344 164.636719 C 232.300781 167.5625 224.59375 169.433594 215.746094 170.207031 C 215.738281 170.207031 215.730469 170.207031 215.722656 170.207031 " fill-opacity="1" fill-rule="nonzero"/><path fill="#000000" d="M 186.648438 127.195312 C 184.476562 127.195312 183.074219 124.886719 183.015625 124.785156 C 182.933594 124.648438 182.980469 124.472656 183.117188 124.390625 C 183.253906 124.308594 183.429688 124.351562 183.511719 124.488281 C 183.523438 124.511719 184.808594 126.621094 186.648438 126.621094 C 186.660156 126.621094 186.671875 126.621094 186.6875 126.621094 C 188.117188 126.597656 189.539062 125.332031 190.914062 122.859375 C 190.992188 122.71875 191.167969 122.667969 191.308594 122.746094 C 191.445312 122.824219 191.496094 123 191.417969 123.140625 C 189.933594 125.808594 188.34375 127.171875 186.691406 127.195312 C 186.679688 127.195312 186.664062 127.195312 186.648438 127.195312 " fill-opacity="1" fill-rule="nonzero"/><path fill="#000000" d="M 206.539062 178.421875 C 206.503906 178.421875 206.472656 178.414062 206.4375 178.402344 C 206.289062 178.351562 206.210938 178.183594 206.265625 178.035156 C 206.589844 177.136719 206.5625 176.335938 206.179688 175.652344 C 205.320312 174.109375 202.960938 173.589844 202.9375 173.585938 C 202.78125 173.554688 202.683594 173.402344 202.714844 173.242188 C 202.75 173.089844 202.902344 172.988281 203.058594 173.019531 C 203.164062 173.042969 205.695312 173.59375 206.683594 175.367188 C 207.148438 176.207031 207.191406 177.167969 206.808594 178.230469 C 206.765625 178.347656 206.65625 178.421875 206.539062 178.421875 " fill-opacity="1" fill-rule="nonzero"/><path fill="#ffffff" d="M 202.554688 176.136719 C 202.175781 175.644531 201.628906 175.296875 201.019531 175.199219 C 200.578125 175.125 200.140625 175.007812 199.714844 174.871094 L 193.847656 173.023438 C 192.757812 172.71875 191.636719 172.84375 190.660156 173.382812 C 187.714844 175.003906 181.675781 178.65625 182.632812 180.84375 C 183.664062 183.207031 189.027344 180.996094 190.917969 180.125 C 191.347656 179.929688 191.832031 179.90625 192.292969 180.070312 C 193.449219 180.480469 195.71875 181.242188 197.027344 181.429688 C 198.105469 181.582031 199.082031 181.066406 199.871094 180.4375 C 200.230469 180.152344 200.65625 179.976562 201.140625 179.882812 C 201.875 179.738281 202.519531 179.296875 202.875 178.628906 L 202.882812 178.613281 C 203.277344 177.882812 203.203125 176.984375 202.695312 176.324219 L 202.554688 176.136719 " fill-opacity="1" fill-rule="nonzero"/><path fill="#000000" d="M 192.683594 173.148438 C 192.03125 173.148438 191.382812 173.3125 190.800781 173.632812 C 185.246094 176.691406 182.292969 179.34375 182.898438 180.730469 C 183.042969 181.066406 183.300781 181.300781 183.679688 181.445312 C 185.546875 182.15625 189.597656 180.414062 190.796875 179.863281 C 191.292969 179.636719 191.859375 179.613281 192.390625 179.800781 C 193.59375 180.222656 195.796875 180.960938 197.066406 181.140625 C 197.894531 181.261719 198.753906 180.957031 199.691406 180.210938 C 200.074219 179.910156 200.542969 179.703125 201.085938 179.597656 C 201.757812 179.46875 202.316406 179.066406 202.621094 178.496094 C 202.621094 178.496094 202.628906 178.476562 202.628906 178.476562 C 202.96875 177.84375 202.902344 177.070312 202.46875 176.5 L 202.324219 176.3125 C 201.980469 175.863281 201.5 175.570312 200.972656 175.484375 C 200.578125 175.417969 200.148438 175.3125 199.628906 175.148438 L 193.761719 173.296875 C 193.40625 173.199219 193.042969 173.148438 192.683594 173.148438 Z M 184.753906 182.1875 C 184.28125 182.1875 183.84375 182.125 183.476562 181.984375 C 182.949219 181.785156 182.578125 181.441406 182.367188 180.960938 C 181.394531 178.734375 186.265625 175.472656 190.523438 173.128906 C 191.558594 172.558594 192.769531 172.421875 193.925781 172.746094 L 199.800781 174.597656 C 200.296875 174.753906 200.699219 174.851562 201.0625 174.914062 C 201.738281 175.023438 202.347656 175.394531 202.78125 175.960938 L 202.925781 176.148438 C 203.5 176.898438 203.582031 177.917969 203.140625 178.75 C 203.136719 178.75 203.128906 178.765625 203.128906 178.765625 C 202.742188 179.492188 202.039062 180 201.195312 180.164062 C 200.738281 180.253906 200.363281 180.417969 200.050781 180.664062 C 198.980469 181.511719 197.976562 181.855469 196.984375 181.714844 C 195.664062 181.527344 193.417969 180.773438 192.199219 180.34375 C 191.804688 180.203125 191.402344 180.21875 191.035156 180.386719 C 189.730469 180.988281 186.863281 182.1875 184.753906 182.1875 " fill-opacity="1" fill-rule="nonzero"/><path fill="#ffffff" d="M 168.753906 105.335938 C 168.933594 104.808594 169.476562 104.5 170.019531 104.613281 C 171.535156 104.9375 179.34375 106.597656 180.796875 106.917969 C 182.253906 107.238281 182.3125 108.804688 183.140625 110.238281 C 183.863281 111.484375 186.347656 116.050781 189.050781 119.234375 C 189.863281 120.195312 189.976562 121.570312 189.34375 122.65625 C 188.980469 123.285156 188.519531 123.898438 187.96875 124.257812 C 186.511719 125.21875 185.429688 126.375 182.382812 119.09375 C 182.382812 119.09375 180.996094 118.429688 179.65625 116.898438 C 179.65625 116.898438 174.910156 122.496094 173.699219 111.128906 C 173.589844 110.121094 174.054688 109.136719 174.9375 108.636719 C 175.007812 108.597656 175.082031 108.558594 175.160156 108.519531 L 169.472656 106.757812 C 168.875 106.574219 168.550781 105.929688 168.753906 105.335938 " fill-opacity="1" fill-rule="nonzero"/><path fill="#000000" d="M 179.65625 116.609375 C 179.742188 116.609375 179.820312 116.648438 179.875 116.710938 C 181.152344 118.171875 182.496094 118.824219 182.507812 118.832031 C 182.570312 118.863281 182.621094 118.914062 182.648438 118.980469 C 184.152344 122.570312 185.277344 124.367188 186.195312 124.644531 C 186.648438 124.777344 187.03125 124.542969 187.621094 124.144531 C 187.683594 124.105469 187.746094 124.0625 187.8125 124.019531 C 188.25 123.726562 188.683594 123.222656 189.09375 122.511719 C 189.667969 121.527344 189.5625 120.285156 188.832031 119.421875 C 186.402344 116.566406 184.152344 112.597656 183.191406 110.902344 C 183.070312 110.695312 182.972656 110.515625 182.890625 110.382812 C 182.632812 109.929688 182.449219 109.480469 182.273438 109.046875 C 181.898438 108.121094 181.605469 107.390625 180.738281 107.199219 C 179.15625 106.851562 170.054688 104.917969 169.960938 104.898438 C 169.5625 104.8125 169.160156 105.042969 169.027344 105.429688 C 168.953125 105.644531 168.96875 105.871094 169.074219 106.074219 C 169.171875 106.273438 169.34375 106.417969 169.554688 106.480469 L 175.242188 108.242188 C 175.355469 108.277344 175.4375 108.378906 175.445312 108.496094 C 175.457031 108.613281 175.394531 108.722656 175.289062 108.777344 C 175.214844 108.8125 175.144531 108.851562 175.078125 108.890625 C 174.316406 109.320312 173.886719 110.1875 173.984375 111.101562 C 174.53125 116.210938 175.769531 117.632812 176.714844 117.921875 C 178.046875 118.332031 179.425781 116.730469 179.4375 116.710938 C 179.492188 116.648438 179.570312 116.613281 179.65625 116.609375 Z M 186.449219 125.257812 C 186.3125 125.257812 186.171875 125.238281 186.027344 125.195312 C 184.914062 124.863281 183.753906 123.097656 182.15625 119.300781 C 181.828125 119.128906 180.75 118.507812 179.652344 117.324219 C 179.152344 117.824219 177.882812 118.886719 176.542969 118.472656 C 174.929688 117.976562 173.875 115.515625 173.410156 111.160156 C 173.304688 110.15625 173.710938 109.195312 174.464844 108.605469 L 169.386719 107.035156 C 169.023438 106.921875 168.730469 106.671875 168.558594 106.335938 C 168.382812 105.992188 168.359375 105.605469 168.480469 105.242188 C 168.710938 104.578125 169.398438 104.1875 170.082031 104.332031 C 170.171875 104.351562 179.277344 106.289062 180.859375 106.636719 C 182.023438 106.890625 182.40625 107.832031 182.808594 108.828125 C 182.976562 109.246094 183.152344 109.675781 183.390625 110.09375 C 183.472656 110.230469 183.570312 110.40625 183.691406 110.617188 C 184.644531 112.296875 186.878906 116.234375 189.269531 119.046875 C 190.160156 120.097656 190.289062 121.605469 189.59375 122.804688 C 189.136719 123.589844 188.644531 124.160156 188.128906 124.5 C 188.066406 124.542969 188.003906 124.582031 187.941406 124.625 C 187.476562 124.9375 187 125.257812 186.449219 125.257812 " fill-opacity="1" fill-rule="nonzero"/><path fill="#000000" d="M 180.746094 114.621094 C 180.699219 114.621094 180.648438 114.609375 180.605469 114.585938 C 180.230469 114.375 179.535156 113.898438 179.253906 113.703125 C 177.703125 112.628906 176.839844 111.5625 176.460938 111.023438 C 176.191406 110.636719 176.054688 110.199219 176.066406 109.761719 C 176.089844 108.917969 176.660156 108.726562 176.902344 108.644531 C 177.84375 108.328125 179.332031 109.191406 179.496094 109.289062 C 179.632812 109.371094 179.679688 109.546875 179.597656 109.683594 C 179.515625 109.820312 179.339844 109.867188 179.203125 109.785156 C 178.8125 109.550781 177.671875 108.992188 177.089844 109.191406 C 176.855469 109.269531 176.65625 109.335938 176.640625 109.777344 C 176.632812 110.089844 176.734375 110.40625 176.933594 110.695312 C 177.289062 111.203125 178.105469 112.207031 179.578125 113.226562 C 179.855469 113.417969 180.535156 113.882812 180.886719 114.082031 C 181.027344 114.160156 181.074219 114.335938 180.996094 114.476562 C 180.945312 114.570312 180.847656 114.621094 180.746094 114.621094 " fill-opacity="1" fill-rule="nonzero"/><path fill="#000000" d="M 179.722656 117.253906 C 179.648438 117.253906 179.570312 117.222656 179.515625 117.164062 C 178.234375 115.851562 178.3125 114.441406 178.316406 114.382812 C 178.324219 114.222656 178.460938 114.105469 178.621094 114.113281 C 178.78125 114.125 178.902344 114.261719 178.890625 114.421875 C 178.886719 114.46875 178.835938 115.640625 179.929688 116.761719 C 180.039062 116.878906 180.039062 117.058594 179.921875 117.171875 C 179.867188 117.226562 179.792969 117.253906 179.722656 117.253906 " fill-opacity="1" fill-rule="nonzero"/><path fill="#ffffff" d="M 254.242188 121.582031 L 255.777344 109.300781 L 245.085938 112.605469 L 244.007812 119.796875 C 243.746094 121.730469 245.183594 123.085938 245.183594 123.085938 C 246.933594 124.925781 249.792969 125.148438 252.085938 124.074219 L 252.617188 123.824219 C 253.507812 123.410156 254.121094 122.5625 254.242188 121.582031 " fill-opacity="1" fill-rule="nonzero"/><path fill="#000000" d="M 254.242188 121.585938 L 254.246094 121.585938 Z M 245.347656 112.828125 L 244.292969 119.839844 C 244.054688 121.601562 245.367188 122.863281 245.378906 122.878906 C 246.941406 124.519531 249.648438 124.898438 251.964844 123.8125 L 252.496094 123.566406 C 253.300781 123.1875 253.84375 122.433594 253.957031 121.546875 L 255.4375 109.710938 Z M 249.207031 125.015625 C 247.585938 125.015625 246.058594 124.421875 244.972656 123.285156 C 244.921875 123.238281 243.445312 121.816406 243.722656 119.761719 L 244.800781 112.5625 C 244.820312 112.453125 244.894531 112.359375 245.003906 112.328125 L 255.691406 109.027344 C 255.785156 108.996094 255.890625 109.015625 255.964844 109.082031 C 256.039062 109.144531 256.078125 109.242188 256.0625 109.335938 L 254.527344 121.621094 C 254.394531 122.703125 253.722656 123.625 252.742188 124.085938 L 252.207031 124.335938 C 251.230469 124.792969 250.199219 125.015625 249.207031 125.015625 " fill-opacity="1" fill-rule="nonzero"/><path fill="#000000" d="M 244.554688 91.335938 C 247.203125 91.644531 243.441406 93.769531 253.628906 92.628906 C 257.6875 92.175781 254.953125 96.347656 256.007812 96.234375 C 259.894531 95.808594 259.761719 95.820312 261.488281 96.613281 C 262.628906 97.136719 263.027344 99.480469 262.515625 101.09375 C 261.84375 103.21875 259.953125 103.46875 257.566406 107.796875 C 255.890625 110.835938 255.828125 112.847656 254.453125 113.09375 C 253.0625 113.339844 252.398438 111.414062 250.859375 111.570312 C 248.867188 111.769531 248.671875 115.132812 246.585938 116.175781 C 245.273438 116.832031 242.488281 116.757812 238.507812 113.878906 C 237.859375 113.410156 237.636719 112.546875 237.976562 111.824219 C 238.410156 110.894531 238.96875 109.726562 239.589844 108.65625 C 242.566406 103.550781 244.71875 102.652344 244.261719 101.113281 C 243.558594 98.757812 239.246094 99.285156 238.875 97.386719 C 238.492188 95.414062 240.929688 90.917969 244.554688 91.335938 " fill-opacity="1" fill-rule="nonzero"/><path fill="#ffffff" d="M 252.082031 102.34375 L 251.09375 103.617188 C 250.625 104.214844 250.199219 104.84375 249.820312 105.503906 C 249.101562 106.738281 247.859375 108.851562 247.074219 109.980469 C 245.917969 111.640625 240.542969 108.425781 240.542969 108.425781 L 240.386719 107.25 L 239.765625 106.859375 C 239.644531 106.785156 239.539062 106.683594 239.472656 106.558594 C 239.304688 106.242188 239.367188 105.875 239.597656 105.636719 C 240.851562 104.332031 243.511719 101.375 244.777344 98.523438 C 244.777344 98.523438 249.238281 98.164062 252.082031 102.34375 " fill-opacity="1" fill-rule="nonzero"/><path fill="#000000" d="M 251.796875 102.335938 C 251.6875 102.230469 251.582031 102.128906 251.492188 102.027344 C 251.394531 101.921875 251.339844 101.820312 251.203125 101.6875 C 250.96875 101.433594 250.742188 101.167969 250.472656 100.949219 C 249.972656 100.472656 249.390625 100.085938 248.78125 99.757812 C 248.171875 99.433594 247.515625 99.191406 246.839844 99.03125 C 246.671875 98.988281 246.5 98.960938 246.332031 98.921875 C 246.164062 98.894531 245.988281 98.871094 245.820312 98.851562 C 245.476562 98.8125 245.121094 98.792969 244.800781 98.808594 L 245.039062 98.636719 C 244.25 100.34375 243.152344 101.847656 241.984375 103.273438 C 241.394531 103.980469 240.785156 104.671875 240.15625 105.34375 L 239.917969 105.59375 L 239.742188 105.78125 C 239.726562 105.796875 239.710938 105.8125 239.699219 105.828125 C 239.597656 105.964844 239.550781 106.144531 239.597656 106.3125 C 239.644531 106.488281 239.753906 106.585938 239.9375 106.675781 C 240.140625 106.78125 240.34375 106.886719 240.539062 107.007812 C 240.613281 107.050781 240.660156 107.128906 240.671875 107.207031 L 240.671875 107.214844 L 240.832031 108.390625 L 240.691406 108.175781 C 241.84375 108.835938 243.0625 109.433594 244.3125 109.84375 C 244.625 109.941406 244.941406 110.027344 245.253906 110.082031 C 245.570312 110.136719 245.886719 110.164062 246.171875 110.128906 C 246.464844 110.097656 246.6875 109.984375 246.824219 109.796875 C 247.011719 109.523438 247.195312 109.242188 247.378906 108.960938 C 248.101562 107.828125 248.785156 106.660156 249.46875 105.496094 C 249.808594 104.902344 250.1875 104.320312 250.601562 103.769531 C 250.699219 103.636719 250.816406 103.488281 250.910156 103.371094 C 251.003906 103.253906 251.097656 103.136719 251.195312 103.019531 C 251.386719 102.792969 251.585938 102.566406 251.796875 102.335938 Z M 252.371094 102.355469 C 252.164062 102.65625 251.949219 102.964844 251.726562 103.265625 L 251.078125 104.125 C 250.683594 104.660156 250.328125 105.21875 250 105.800781 C 249.320312 106.976562 248.628906 108.144531 247.898438 109.292969 C 247.714844 109.582031 247.527344 109.867188 247.332031 110.148438 C 247.203125 110.320312 247.03125 110.488281 246.832031 110.574219 C 246.738281 110.628906 246.640625 110.652344 246.542969 110.691406 C 246.445312 110.707031 246.347656 110.734375 246.25 110.742188 C 245.863281 110.789062 245.496094 110.75 245.148438 110.683594 C 244.796875 110.621094 244.457031 110.527344 244.125 110.421875 C 243.464844 110.203125 242.828125 109.933594 242.210938 109.640625 C 241.589844 109.34375 240.988281 109.027344 240.390625 108.675781 C 240.3125 108.628906 240.261719 108.546875 240.25 108.464844 L 240.101562 107.285156 L 240.234375 107.492188 C 240.042969 107.367188 239.859375 107.230469 239.671875 107.09375 C 239.574219 107.027344 239.449219 106.925781 239.367188 106.804688 C 239.285156 106.679688 239.226562 106.542969 239.199219 106.402344 C 239.136719 106.121094 239.199219 105.8125 239.375 105.582031 C 239.398438 105.554688 239.421875 105.527344 239.445312 105.5 L 239.855469 105.0625 C 240.476562 104.394531 241.070312 103.703125 241.632812 102.988281 C 242.195312 102.273438 242.730469 101.535156 243.214844 100.773438 C 243.707031 100.011719 244.15625 99.222656 244.515625 98.40625 L 244.515625 98.398438 C 244.558594 98.300781 244.652344 98.242188 244.753906 98.234375 C 245.148438 98.210938 245.507812 98.234375 245.882812 98.273438 C 246.066406 98.296875 246.25 98.320312 246.433594 98.351562 C 246.613281 98.386719 246.796875 98.417969 246.976562 98.460938 C 247.699219 98.632812 248.398438 98.886719 249.054688 99.234375 C 249.707031 99.582031 250.335938 99.996094 250.875 100.507812 C 251.160156 100.746094 251.398438 101.03125 251.648438 101.300781 C 251.769531 101.421875 251.90625 101.625 252.03125 101.800781 C 252.152344 101.984375 252.269531 102.171875 252.371094 102.355469 " fill-opacity="1" fill-rule="nonzero"/><path fill="#ffffff" d="M 250.179688 107.054688 C 250.179688 107.054688 252.5625 103.996094 253.714844 105.378906 C 254.871094 106.765625 252.164062 110.070312 250.179688 107.054688 " fill-opacity="1" fill-rule="nonzero"/><path stroke-linecap="butt" transform="matrix(0.75, 0, 0, 0.75, -3.121283, -0.000000000000000333)" fill="none" stroke-linejoin="miter" d="M 0.000252633 2 L 516.161752 2 " stroke="#e60023" stroke-width="4" stroke-opacity="1" stroke-miterlimit="4"/><path stroke-linecap="butt" transform="matrix(0.75, 0, 0, 0.75, -3.121283, 380.99997)" fill="none" stroke-linejoin="miter" d="M 0.000252633 2.00004 L 516.161752 2.00004 " stroke="#e60023" stroke-width="4" stroke-opacity="1" stroke-miterlimit="4"/><path stroke-linecap="butt" transform="matrix(0, 0.75, -0.75, 0, 2.997947, -1.558594)" fill="none" stroke-linejoin="miter" d="M -0.000000172518 2.002471 L 516.161499 2.002471 " stroke="#e60023" stroke-width="4" stroke-opacity="1" stroke-miterlimit="4"/><path stroke-linecap="butt" transform="matrix(0, 0.75, -0.75, 0, 383.997927, -3.119236)" fill="none" stroke-linejoin="miter" d="M -0.00247735 2.002445 L 516.16423 2.002445 " stroke="#e60023" stroke-width="4" stroke-opacity="1" stroke-miterlimit="4"/></svg>